<svg width="22" height="24" viewBox="0 0 22 24" fill="none" xmlns="http://www.w3.org/2000/svg">
<path d="M2.04641 10.1344L0.801607 21.3344L2.39201 21.512L3.63681 10.3104L2.04641 10.1344ZM3.18721 24H18.8128V22.4H3.18721V24ZM21.1984 21.3344L19.9536 10.1344L18.3632 10.3104L19.608 21.512L21.1984 21.3344ZM17.5664 8H4.43361V9.6H17.5696V8H17.5664ZM19.9536 10.1344C19.8882 9.54744 19.6088 9.00518 19.1686 8.61139C18.7285 8.2176 18.157 7.99992 17.5664 8L17.568 9.6C17.765 9.59999 17.955 9.67262 18.1017 9.804C18.2484 9.93537 18.3415 10.1163 18.3632 10.312L19.9536 10.1344ZM18.8128 24C19.1503 23.9998 19.4839 23.9285 19.792 23.7906C20.1 23.6528 20.3755 23.4515 20.6005 23.1999C20.8254 22.9484 20.9948 22.6522 21.0976 22.3308C21.2003 22.0093 21.2358 21.6698 21.1984 21.3344L19.608 21.512C19.6206 21.6239 19.6095 21.7357 19.5752 21.843C19.541 21.9503 19.4846 22.0492 19.4095 22.1332C19.3344 22.2171 19.2425 22.2843 19.1396 22.3303C19.0368 22.3763 18.9254 22.4 18.8128 22.4V24ZM0.801607 21.3344C0.764245 21.6699 0.798095 22.0096 0.900946 22.3311C1.0038 22.6527 1.17333 22.949 1.39848 23.2005C1.62363 23.4521 1.89932 23.6533 2.20755 23.7911C2.51577 23.9289 2.8496 24 3.18721 24V22.4C3.07472 22.4 2.9635 22.3763 2.8608 22.3304C2.75809 22.2845 2.66623 22.2175 2.59118 22.1337C2.51614 22.0499 2.45962 21.9512 2.4253 21.8441C2.39098 21.737 2.37963 21.6238 2.39201 21.512L0.801607 21.336V21.3344ZM3.63681 10.3104C3.65884 10.1149 3.75211 9.93444 3.89879 9.8034C4.04548 9.67235 4.23691 9.59994 4.43361 9.6V8C3.84329 8.00031 3.2722 8.21817 2.8324 8.61192C2.39259 9.00568 2.11174 9.54771 2.04641 10.1344L3.63681 10.3104ZM7 12L7.00001 5.6H5.40001L5.4 12H7ZM15 5.6L15 12H16.6L16.6 5.6H15ZM11 1.6C12.0609 1.6 13.0783 2.02143 13.8284 2.77157C14.5786 3.52172 15 4.53913 15 5.6H16.6C16.6 4.11479 16.01 2.69041 14.9598 1.6402C13.9096 0.589998 12.4852 0 11 0V1.6ZM7.00001 5.6C7.00001 4.53913 7.42143 3.52172 8.17158 2.77157C8.92172 2.02143 9.93914 1.6 11 1.6V0C9.51479 0 8.09041 0.589998 7.04021 1.6402C5.99001 2.69041 5.40001 4.11479 5.40001 5.6H7.00001Z" fill="black"/>
</svg>
